<?xml version="1.0" encoding="utf-8"?>
<!-- Generator: Adobe Illustrator 24.3.0, SVG Export Plug-In . SVG Version: 6.00 Build 0)  -->
<svg version="1.1" id="Layer_1" xmlns="http://www.w3.org/2000/svg" xmlns:xlink="http://www.w3.org/1999/xlink" x="0px" y="0px"
	 viewBox="0 0 652.6 385.7" style="enable-background:new 0 0 652.6 385.7;" xml:space="preserve">
<style type="text/css">
	.st0{fill:#E6E6E6;}
	.st1{fill:#FFFFFF;}
	.st2{fill:#3F3D56;}
	.st3{fill:#1C5D99;}
	.st4{fill:#2F2E41;}
	.st5{fill:#A0616A;}
	.st6{fill:#F2F2F2;}
	.st7{fill:#CCCCCC;}
</style>
<path class="st0" d="M203.6,227.6V21.1c0-10.9,8.8-19.7,19.7-19.7h409.6c10.9,0,19.7,8.8,19.7,19.7v206.6c0,10.9-8.8,19.7-19.7,19.7
	H223.4C212.5,247.3,203.6,238.5,203.6,227.6z M650.6,21.1c0-9.8-7.9-17.7-17.7-17.7H223.4c-9.8,0-17.7,7.9-17.7,17.7v206.6
	c0,9.8,7.9,17.7,17.7,17.7h278.6c82.1,0,148.7-66.6,148.7-148.7L650.6,21.1L650.6,21.1z"/>
<g>
	<path class="st1" d="M347.9,38.9H118.4c-6.8,0-12.3,5.5-12.3,12.3v84.3c0,6.8,5.5,12.3,12.3,12.3h229.5c6.8,0,12.3-5.5,12.3-12.3
		V51.2C360.3,44.4,354.7,38.9,347.9,38.9z"/>
	<path class="st2" d="M347.9,38.9H118.4c-6.8,0-12.3,5.5-12.3,12.3v84.3c0,6.8,5.5,12.3,12.3,12.3h229.5c6.8,0,12.3-5.5,12.3-12.3
		V51.2C360.3,44.4,354.7,38.9,347.9,38.9z M359,135.6c0,6.1-5,11-11,11H118.4c-6.1,0-11-5-11-11V51.2c0-6.1,5-11,11-11h229.5
		c6.1,0,11,5,11,11V135.6z"/>
</g>
<path class="st3" d="M129.1,77.3h204c1.9,0,3.5,1.6,3.5,3.5l0,0c0,1.9-1.6,3.5-3.5,3.5h-204c-1.9,0-3.5-1.6-3.5-3.5l0,0
	C125.6,78.9,127.2,77.3,129.1,77.3z"/>
<path class="st3" d="M129.1,100.3h74c1.9,0,3.5,1.6,3.5,3.5l0,0c0,1.9-1.6,3.5-3.5,3.5h-74c-1.9,0-3.5-1.6-3.5-3.5l0,0
	C125.6,101.9,127.2,100.3,129.1,100.3z"/>
<path class="st0" d="M574.6,66.6h-140c-2.2,0-4-1.8-4-4s1.8-4,4-4h140c2.2,0,4,1.8,4,4C578.6,64.8,576.8,66.6,574.6,66.6z"/>
<path class="st0" d="M601.1,153.4H406v-1c64.2,9.9,129.3,9,195.1,0V153.4z"/>
<path class="st0" d="M574.6,117.6h-140c-2.2,0-4-1.8-4-4s1.8-4,4-4h140c2.2,0,4,1.8,4,4S576.8,117.6,574.6,117.6z"/>
<rect x="407" y="166.4" class="st0" width="195.1" height="1"/>
<path class="st0" d="M574.6,91.3h-140c-2.2,0-4-1.8-4-4s1.8-4,4-4h140c2.2,0,4,1.8,4,4S576.8,91.3,574.6,91.3z"/>
<path class="st0" d="M602.1,180.4c-67.3-4.6-132.7-5.3-195.1,0v-1h195.1V180.4z"/>
<g>
	<path class="st2" d="M332.9,164.1l-8.2-3.9c3.4,4.7,6.3,12.1,7.8,17.9c2.6-5.5,6.9-12.1,11.1-16.1l-8.7,2.2
		c5.4-26.3,25.5-45.1,48.6-45.1v-2C359.4,117.1,338.4,136.8,332.9,164.1z"/>
	<path class="st3" d="M370.8,204.1h-52c-2.2,0-4-1.8-4-4s1.8-4,4-4h52c2.2,0,4,1.8,4,4S373,204.1,370.8,204.1z"/>
</g>
<g>
	<circle class="st3" cx="237.6" cy="103.3" r="14"/>
</g>
<g>
	<circle class="st3" cx="405.6" cy="62.3" r="14"/>
</g>
<g>
	<circle class="st3" cx="606.6" cy="85.3" r="14"/>
</g>
<g>
	<path class="st0" d="M292.8,172.9h-33.7c-2.1,0-3.8-1.7-3.8-3.8c-4.5-13-4.4-25.8,0-38.3c0-2.1,1.7-3.8,3.8-3.8h33.7
		c2.1,0,3.8,1.7,3.8,3.8v38.3C296.6,171.2,294.9,172.9,292.8,172.9L292.8,172.9z"/>
	<path class="st1" d="M266.3,128.1c-5.5,0-9.9,4.4-9.9,9.9v30.3c0,1.9,1.6,3.5,3.5,3.5h18.6c9.3,0,16.9-7.6,16.9-16.9v-23.2
		c0-1.9-1.6-3.5-3.5-3.5H266.3z"/>
	<g>
		<path class="st0" d="M283.8,139.3H268c-0.4,0-0.7-0.3-0.7-0.7s0.3-0.7,0.7-0.7h15.8c0.4,0,0.7,0.3,0.7,0.7
			S284.2,139.3,283.8,139.3z"/>
		<path class="st0" d="M283.8,154.7H268c-0.4,0-0.7-0.3-0.7-0.7s0.3-0.7,0.7-0.7h15.8c0.4,0,0.7,0.3,0.7,0.7
			S284.2,154.7,283.8,154.7z"/>
		<path class="st0" d="M292.3,147h-32.7c-0.4,0-0.7-0.3-0.7-0.7s0.3-0.7,0.7-0.7h32.7c0.4,0,0.7,0.3,0.7,0.7S292.7,147,292.3,147z"
			/>
	</g>
	<path class="st0" d="M292.7,160.9H279c-0.4,0-0.7-0.3-0.7-0.7s0.3-0.7,0.7-0.7h13.7c0.4,0,0.7,0.3,0.7,0.7S293.1,160.9,292.7,160.9
		z"/>
</g>
<path class="st4" d="M60.5,68.1c0.9-4.1,1.1-1.1,3.1-4.8c-1.3,4.8,1.1,3.2,4.4,7c22.8,3.6,24.3-4.2,32.7-4l0,0
	c1.9,0,2.8-2.3,1.7-3.7c-2.8-3.7-5.8-9.3-2.9-12.9c5.1-6.3,0.6-19.2-1.6-16.4c0-10.8-13.3-17.9-18.4-16.1
	c-9.5,3.2-18.3,7.6-19.4,17.4c-0.2,1.5-0.4,3-0.7,4.6c-0.6,3.1-2.8,3.9-2.1,6.9l2.5,2.5c1.2,4.4,0.8,9.1-0.8,13.3
	C58.1,64.1,58,66.2,60.5,68.1z"/>
<circle id="b" class="st5" cx="84.3" cy="39.3" r="14.3"/>
<g>
	<polygon class="st5" points="62,365.7 69.4,365.9 73.5,332.7 62.6,332.5 	"/>
	<path class="st4" d="M87.3,381.1L87.3,381.1c0,1.2-0.9,2.3-2,2.3H70.7c0,0-1.4-5.8-7.3-8.3l-0.4,8.3h-7.6l0.9-13.3
		c0,0-2-7.1,2.2-10.8c4.2-3.6,0.8-3.1,0.8-3.1l1.7-8.2l11.4,1.3l0.1,12.9L78,375l8.1,4C86.8,379.4,87.3,380.2,87.3,381.1L87.3,381.1
		C87.3,381.1,87.3,381.1,87.3,381.1z"/>
</g>
<g>
	<polygon class="st5" points="70.1,335.6 76,340.1 98.8,315.8 90.1,309.2 	"/>
	<path class="st4" d="M81.5,363L81.5,363c-0.7,1-2,1.3-2.9,0.7L66.7,355c0,0,2.2-5.5-1-11l-5.2,6.5l-6.1-4.4l8.6-10.2
		c0,0,2.6-6.9,8.1-7.4c5.5-0.5,2.5-2.1,2.5-2.1l6.2-5.7l8.4,7.8l-7.6,10.5l-3.1,13.6l4.2,8C82.1,361.3,82,362.2,81.5,363
		C81.5,363,81.5,363,81.5,363z"/>
</g>
<path class="st4" d="M49,196.3c0.4,1.8-0.4,10.3,0.1,13.2c1.2,7.4,11.8,47.9,10,59.4c-6.7,42.3,2.6,69.4,2.6,69.4h15l8-128l7.8,10.3
	l15.3,45.6l-27,48.6l14.1,11.7l42.1-67L107,147.5l-1.8-6.8l-40.5-1.1l2.3,3.4l-5.1,5.1c0,0,0,0,0,0C61,149.1,43.5,173.8,49,196.3
	L49,196.3L49,196.3z"/>
<path class="st5" d="M61.8,148c4.7,1.7,36.3-0.1,45.2-0.6l-1.8-6.8l-40.5-1.1l2.3,3.4L61.8,148C61.9,148,61.9,148,61.8,148L61.8,148
	L61.8,148z"/>
<path class="st3" d="M114.2,93.8L114.2,93.8l-1.5,7.7l-0.4,1.9l-7.8,15.9l1,23.3c0.7,2.7-26.9-3.5-41.2,2.9L53.4,92.4l11.3-24.5
	l8.8-4.9l1.5-5.9h18.7c1,4.7-0.1,7-2,8.3l4.7,12.5L114.2,93.8C114.2,93.8,114.2,93.8,114.2,93.8z"/>
<g>
	<path class="st5" d="M128.8,48.2L128.8,48.2c-0.2,2-0.9,3.8-1.8,5.1l-1,19.2l-9.1-0.7l2-19.4c-0.6-1.5-0.8-3.4-0.6-5.4
		c0.5-4.6,3.3-8,6.2-7.7C127.4,39.7,129.3,43.7,128.8,48.2L128.8,48.2L128.8,48.2L128.8,48.2L128.8,48.2z"/>
	<path class="st3" d="M92.4,68.4l1.2,2.9c0,0-17.4-1.7-17,7.3c0.3,7.8,33.1,38.5,34.6,39.2v0c4.6,2.1,10-0.7,10.9-5.8
		c7.4-19,8.9-36.2,5.5-51.8h-10l-3.3,12.3l-0.2,9.4l-5.3,11.2L91.6,71.3L92.4,68.4L92.4,68.4z"/>
</g>
<path class="st5" d="M34.5,175.2c0.6-2,0.8-3.9,0.5-5.5l7.3-18.3l-8.8-3.2L27,167.1c-1.2,1.2-2.2,2.8-2.9,4.8
	c-1.5,4.5-0.4,8.9,2.5,9.8C29.5,182.6,33,179.7,34.5,175.2L34.5,175.2L34.5,175.2L34.5,175.2z"/>
<path class="st3" d="M76.6,68.4c0,0-10.8-4.1-16.9,0.9c-2.5,2.1-13.7,16.3-15.4,35.4c-0.1,1.5-1.2,2.8-1.7,4.2
	c-3.6,8.7-9.7,12.6-12.3,20c-1,2.9,0.8,10.4,0.2,12.9c-3.4,13.1-2.1,20.5-2.1,20.5l9.1,3l4.9-3.5l8.1-29.5L76.6,68.4L76.6,68.4z"/>
<g>
	<path class="st0" d="M157.8,45.9h-33.7c-2.1,0-3.8-1.7-3.8-3.8c-4.5-13-4.4-25.8,0-38.3c0-2.1,1.7-3.8,3.8-3.8h33.7
		c2.1,0,3.8,1.7,3.8,3.8v38.3C161.6,44.2,159.9,45.9,157.8,45.9z"/>
	<path class="st1" d="M131.3,1.1c-5.5,0-9.9,4.4-9.9,9.9v30.3c0,1.9,1.6,3.5,3.5,3.5h18.6c9.3,0,16.9-7.6,16.9-16.9V4.6
		c0-1.9-1.6-3.5-3.5-3.5C157,1.1,131.3,1.1,131.3,1.1z"/>
	<g>
		<path class="st0" d="M148.8,12.3H133c-0.4,0-0.7-0.3-0.7-0.7s0.3-0.7,0.7-0.7h15.8c0.4,0,0.7,0.3,0.7,0.7S149.2,12.3,148.8,12.3z"
			/>
		<path class="st0" d="M148.8,27.7H133c-0.4,0-0.7-0.3-0.7-0.7s0.3-0.7,0.7-0.7h15.8c0.4,0,0.7,0.3,0.7,0.7S149.2,27.7,148.8,27.7z"
			/>
		<path class="st0" d="M157.3,20h-32.7c-0.4,0-0.7-0.3-0.7-0.7s0.3-0.7,0.7-0.7h32.7c0.4,0,0.7,0.3,0.7,0.7S157.7,20,157.3,20z"/>
	</g>
	<path class="st0" d="M157.7,33.9H144c-0.4,0-0.7-0.3-0.7-0.7s0.3-0.7,0.7-0.7h13.7c0.4,0,0.7,0.3,0.7,0.7S158.1,33.9,157.7,33.9z"
		/>
</g>
<path class="st6" d="M167.6,366.8c2.1,0.1,3.2-2.4,1.6-3.9l-0.2-0.6c0,0,0-0.1,0.1-0.1c2.1-5,9.2-4.9,11.2,0
	c1.8,4.4,4.2,8.9,4.8,13.5c0.3,2.1,0.1,4.2-0.3,6.2c4.3-9.4,6.6-19.7,6.6-30c0-2.6-0.1-5.2-0.4-7.8c-0.2-2.1-0.6-4.2-1-6.3
	c-2.3-11.3-7.3-22-14.5-31c-3.5-1.9-6.3-4.9-8.1-8.4c-0.6-1.3-1.1-2.7-1.3-4.1c0.4,0.1,1.5-5.9,1.2-6.3c0.5-0.8,1.5-1.2,2.1-2.1
	c3-4,7.1-3.3,9.2,2.2c4.6,2.3,4.6,6.1,1.8,9.8c-1.8,2.3-2,5.5-3.6,8c0.2,0.2,0.3,0.4,0.5,0.6c3,3.8,5.5,7.9,7.7,12.2
	c-0.6-4.8,0.3-10.5,1.8-14.2c1.7-4.2,5-7.8,7.9-11.4c3.5-4.4,10.6-2.5,11.2,3.1c0,0.1,0,0.1,0,0.2c-0.4,0.2-0.8,0.5-1.3,0.8
	c-2.3,1.5-1.5,5.2,1.2,5.6l0.1,0c-0.2,1.5-0.4,3.1-0.8,4.6c3.7,14.3-4.3,19.5-15.7,19.8c-0.3,0.1-0.5,0.3-0.7,0.4
	c1.2,3.3,2.1,6.6,2.8,10c0.6,3,1,6,1.3,9c0.3,3.8,0.3,7.7-0.1,11.5l0-0.1c0.8-4.2,3.1-8.1,6.4-10.9c4.9-4.1,11.9-5.6,17.3-8.8
	c2.6-1.6,5.9,0.5,5.4,3.4l0,0.1c-0.8,0.3-1.6,0.7-2.3,1.1c-0.4,0.2-0.8,0.5-1.3,0.8c-2.3,1.5-1.5,5.2,1.2,5.6l0.1,0c0,0,0.1,0,0.1,0
	c-1.4,3.2-3.3,6.2-5.6,8.8c-2.3,12.5-12.3,13.7-22.9,10h0c-1.2,5.1-2.9,10-5,14.7h-18c-0.1-0.2-0.1-0.4-0.2-0.6c1.7,0.1,3.3,0,5-0.3
	c-1.3-1.6-2.7-3.3-4-4.9c0,0-0.1-0.1-0.1-0.1c-0.7-0.8-1.4-1.7-2-2.5l0,0C166.6,371.9,166.9,369.3,167.6,366.8L167.6,366.8
	L167.6,366.8z"/>
<path class="st7" d="M0,384.5c0,0.7,0.5,1.2,1.2,1.2h218.3c0.7,0,1.2-0.5,1.2-1.2c0-0.7-0.5-1.2-1.2-1.2H1.2
	C0.5,383.3,0,383.8,0,384.5z"/>
<path class="st4" d="M88.2,22.3h-2.9c-8.5,0-23.1,12.1-17.5,20.5c-4.8,12.8-5,19.5-2.9,23c0.8,1.3,2.2,1.9,3.7,1.8
	c0.2,0,0.4,0,0.6,0c1.4,0,3.4,6.8,4.7,7.3l3.6-1.1l5.8-5.8l-3-8.9l-5.7-4.5l0.8-10.4c-3.8-8.8,0.3-9.3,2.7-12.1l0.2,9.1l3.4-3.2
	c2.7,0.1,5.9,1.3,8.1-1.2c3.9-4.5,7.9,0.9,12.5,2l1.4-1.1c0-2.5-0.3-5-1.1-7.2c-0.3-1-1.2-1.9-1.3-2.9C101.2,23.8,93.9,20,88.2,22.3
	L88.2,22.3L88.2,22.3z"/>
</svg>
