<?xml version="1.0" encoding="utf-8"?>
<!-- Generator: Adobe Illustrator 24.3.0, SVG Export Plug-In . SVG Version: 6.00 Build 0)  -->
<svg version="1.1" id="Layer_1" xmlns="http://www.w3.org/2000/svg" xmlns:xlink="http://www.w3.org/1999/xlink" x="0px" y="0px"
	 viewBox="0 0 808.1 589.4" style="enable-background:new 0 0 808.1 589.4;" xml:space="preserve">
<style type="text/css">
	.st0{fill:#F0F0F0;}
	.st1{fill:#FFFFFF;}
	.st2{fill:#A0616A;}
	.st3{fill:#639FAB;}
	.st4{fill:#2F2E41;}
	.st5{fill:#CCCCCC;}
	.st6{fill:#1C5D99;}
	.st7{fill:#E4E4E4;}
	.st8{fill:#D1D3D4;}
	.st9{fill:#FFB6B6;}
	.st10{fill:#6C63FF;}
	.st11{fill:#E6E7E8;}
</style>
<path class="st0" d="M787.3,526.2c-2.7-20.5-15.6-40.6-35.2-47.1c7.9,21,8.1,44.2,0.5,65.3c-2.9,8.1-7.1,16.9-4.2,25.1
	c1.8,5.1,6.1,8.9,11,11.3c4.8,2.4,10.2,3.5,15.5,4.6l1,0.8C784.2,567.3,790,546.6,787.3,526.2z"/>
<path class="st1" d="M752,479.5c11.5,12.7,18.7,28.6,20.6,45.6c0.5,3.7,0.4,7.4-0.3,11c-0.8,3.5-2.5,6.7-4.9,9.4
	c-2.2,2.5-4.8,4.8-6.4,7.8c-1.6,3.1-1.8,6.8-0.5,10c1.5,4.1,4.3,7.4,7.2,10.5c3.2,3.5,6.6,7,8,11.7c0.2,0.6,1,0.3,0.9-0.3
	c-2.4-8.1-10.3-12.6-14.1-19.9c-1.8-3.4-2.5-7.3-0.9-10.9c1.4-3.1,4.1-5.5,6.3-8c2.4-2.5,4.2-5.6,5.2-9c0.9-3.6,1.1-7.3,0.7-10.9
	c-0.7-8.2-2.7-16.3-6-23.9c-3.6-8.7-8.7-16.7-15.1-23.7C752.2,478.3,751.6,479,752,479.5L752,479.5z"/>
<path class="st1" d="M772.3,519.6c5.8-1.5,9.7-6.9,9.2-12.9c-0.1-0.6-1-0.5-0.9,0.1c0.5,5.5-3.2,10.6-8.6,11.9
	C771.4,518.8,771.7,519.7,772.3,519.6z"/>
<path class="st1" d="M768.6,544.3c-5.1-3-8.9-7.8-10.6-13.5c-0.2-0.6-1-0.3-0.9,0.3c1.8,5.9,5.8,10.9,11.1,14
	C768.7,545.4,769.1,544.6,768.6,544.3z"/>
<path class="st1" d="M763.2,494.7c-2.1,1-4.6,0.9-6.5-0.3c-0.5-0.3-0.9,0.5-0.4,0.8c2.2,1.3,4.9,1.4,7.2,0.3
	c0.2-0.1,0.4-0.3,0.3-0.6C763.7,494.7,763.4,494.6,763.2,494.7z"/>
<path class="st0" d="M692.9,516.2c0.3,0.2,0.6,0.4,0.9,0.6c4.1,2.7,8.1,5.7,11.7,9c0.3,0.3,0.6,0.5,0.9,0.8
	c8.7,8.1,15.9,17.7,21.1,28.3c2.1,4.2,3.8,8.6,5.2,13.2c1.9,6.2,3.5,13.1,7.3,18.2c0.4,0.5,0.8,1,1.3,1.5l33.7-0.3
	c0.1,0,0.2-0.1,0.2-0.1l1.3,0.1c-0.1-0.2-0.1-0.5-0.2-0.7c0-0.1-0.1-0.3-0.1-0.4c0-0.1,0-0.2-0.1-0.3c0,0,0-0.1,0-0.1
	c0-0.1,0-0.2-0.1-0.2c-0.3-1.4-0.7-2.7-1.1-4.1c0,0,0,0,0,0c-2.7-10.5-6.7-20.6-11.8-30.2c-0.2-0.3-0.3-0.6-0.5-0.9
	c-2.4-4.2-5.1-8.3-8.1-12c-1.7-2.1-3.4-4.1-5.3-5.9c-4.8-4.9-10.4-9-16.4-12.1c-12.1-6.3-26.1-8.6-39-4.6
	C693.5,515.9,693.2,516,692.9,516.2z"/>
<path class="st1" d="M692.9,516.6c16.8,3.2,32.2,11.6,43.9,24c2.6,2.6,4.7,5.6,6.4,8.9c1.5,3.3,2.1,6.9,1.7,10.4
	c-0.3,3.3-1,6.7-0.4,10.1c0.6,3.5,2.7,6.5,5.6,8.3c3.6,2.4,7.9,3.3,12,4.1c4.6,0.9,9.5,1.7,13.4,4.5c0.5,0.3,1-0.4,0.5-0.8
	c-6.8-5-15.8-3.9-23.2-7.4c-3.5-1.6-6.4-4.3-7.3-8.2c-0.8-3.4-0.1-6.8,0.2-10.2c0.4-3.5,0-7-1.3-10.3c-1.5-3.4-3.5-6.5-6-9.2
	c-5.5-6.1-12-11.4-19.2-15.5c-8.1-4.8-17.1-8.1-26.3-9.9C692.4,515.6,692.4,516.5,692.9,516.6L692.9,516.6z"/>
<path class="st1" d="M733.3,536.4c3.8-4.7,3.6-11.3-0.4-15.8c-0.4-0.4-1.1,0.2-0.7,0.6c3.7,4.1,3.9,10.4,0.3,14.7
	C732.2,536.3,732.9,536.8,733.3,536.4z"/>
<path class="st1" d="M745.3,558.3c-5.9,0.7-11.8-0.9-16.6-4.4c-0.5-0.3-1,0.4-0.5,0.8c5,3.6,11.1,5.2,17.3,4.5
	C746,559.1,745.8,558.3,745.3,558.3L745.3,558.3z"/>
<path class="st1" d="M711,522c-1.1,2.1-3.1,3.5-5.4,3.7c-0.6,0.1-0.4,1,0.2,0.9c2.6-0.3,4.8-1.8,6-4.1c0.1-0.2,0.1-0.5-0.1-0.6
	C711.5,521.7,711.2,521.8,711,522L711,522z"/>
<path class="st2" d="M565.4,320.1c2.2,2.9,6.4,3.5,9.3,1.3c0.3-0.2,0.6-0.5,0.9-0.8l21.6,9.4l-2.1-12l-20.2-7.1
	c-2.9-2.3-7.1-1.9-9.4,1C563.6,314.3,563.5,317.7,565.4,320.1L565.4,320.1z"/>
<path class="st3" d="M585,313.3l41.2,5.3l42.5-25.6c8.9-5.4,20.4-2.5,25.8,6.4c0.4,0.6,0.7,1.3,1,2l0,0c4.1,9.1,0.4,19.8-8.4,24.4
	L630,346.2l-0.1,0l-50.1-22.3L585,313.3z"/>
<polygon class="st2" points="690.3,579.8 681.5,579.8 677.4,546 690.3,546 "/>
<path class="st4" d="M692.5,588.3l-28.2,0v-0.4c0-6.1,4.9-11,11-11h0l5.2-3.9l9.6,3.9l2.5,0L692.5,588.3z"/>
<polygon class="st2" points="656.4,574.2 647.8,576.2 636.3,544.1 648.9,541.3 "/>
<path class="st4" d="M660.4,582l-27.5,6.2l-0.1-0.3c-1.3-5.9,2.4-11.8,8.3-13.1l0,0l4.2-5l10.2,1.7l2.4-0.5L660.4,582z"/>
<path class="st4" d="M701.4,373.3c4.1,12.4,3.7,25.8-1,40.3l-2,81.2c0,0,3,53.3-6.6,72h-13.9l-6.9-76.9l-0.9-51.6l-29.8,43.5
	l19,83.7l-17.1,1.5l-30.8-90.8l38-88.1L701.4,373.3z"/>
<path class="st3" d="M645.2,385.2l3.4-8.6l-2.3-7.4l-0.5-71.3l0-0.1l8.2-13.1l0.1-8.3l22.9-0.6l2.5,6.3l4.9,2.9
	c10.9,6.6,17.5,18.4,17.3,31.2l-0.9,48.1l2.3,4.6c2.4,4.8,0.5,10.5-4.3,12.9c-0.4,0.2-0.9,0.4-1.4,0.6l-50.5,8.1L645.2,385.2z"/>
<circle class="st2" cx="663.5" cy="247.3" r="20.8"/>
<path class="st4" d="M685.2,251.8c0.6-2.6,0.3-6.3,0-8.9c-0.9-7-4.8-13.4-10.6-17.4c-1.1-0.8-2.4-1.4-3.8-1.5
	c-1.4-0.1-2.7,0.7-3.3,2c-0.7-1.8-2.1-3.1-3.9-3.8c-1.7-0.7-3.6-0.9-5.5-0.7c-7.4,0.6-13.8,5.2-16.8,12c-0.6,1.3-2.1-3.6-2.8-2.3
	c-0.6,1.3-1.8,2.3-3.2,2.8c-1.4,0.4-1.9,6.1-2.5,4.8c-1.4,3.2,0.1,6.9,3.3,8.3c0.9,0.4,1.8,0.5,2.7,0.5c1.4-0.2,2.8-0.4,4.1-0.8
	c5.2-0.7,10,2.7,11.3,7.7c0.4-1.4,1-2.8,1.8-4c0.8-1.2,2.2-2,3.7-2c1.4,0.2,2.7,0.9,3.6,2.1c0.9,1.1,1.6,2.3,2.5,3.4
	c2.7,3.1,6.4,10.5,10.2,9.9C679.3,263.3,684.3,255.4,685.2,251.8z"/>
<path class="st2" d="M585.8,375.5c3.4,1.5,7.3-0.1,8.7-3.4c0.2-0.4,0.3-0.7,0.4-1.1l23.4-2.4l-7.7-9.5l-21,3.7
	c-3.6-0.6-7.1,1.8-7.7,5.5C581.3,371.3,582.9,374.3,585.8,375.5L585.8,375.5z"/>
<path class="st3" d="M599.5,359.9l38.5-15.5l24.5-43.1c5.1-9,16.6-12.2,25.6-7c0.6,0.4,1.3,0.8,1.8,1.2l0,0c8,5.9,10,17.1,4.6,25.4
	l-39.9,45.7l-0.1,0.1l-54.6,5L599.5,359.9z"/>
<path class="st5" d="M807,589.4H459c-0.7,0-1.2-0.5-1.2-1.2s0.5-1.2,1.2-1.2c0,0,0,0,0,0h348c0.7,0,1.2,0.5,1.2,1.2
	S807.6,589.4,807,589.4C807,589.4,807,589.4,807,589.4z"/>
<path class="st6" d="M582.1,395.8H423.9c-2.3,0-4.2-1.9-4.2-4.2v-64.2c0-2.3,1.9-4.2,4.2-4.2h158.1c2.3,0,4.2,1.9,4.2,4.2v64.2
	C586.2,393.9,584.4,395.8,582.1,395.8z"/>
<path class="st7" d="M567,426.6H439c-2.8,0-5-2.2-5-5c0-2.8,2.2-5,5-5c0,0,0,0,0,0h128C573.4,416.5,573.5,426.7,567,426.6z"/>
<path class="st7" d="M567,449.4H439c-2.8,0-5-2.2-5-5c0-2.8,2.2-5,5-5c0,0,0,0,0,0h128C573.4,439.4,573.5,449.5,567,449.4z"/>
<path class="st7" d="M567,472.3H439c-2.8,0-5-2.2-5-5c0-2.8,2.2-5,5-5c0,0,0,0,0,0h128C573.4,462.2,573.5,472.4,567,472.3z"/>
<path class="st0" d="M29,225.6C1.2,189-10,137.1,10.7,96.1c20.6,45.6,56.6,82.4,101.7,103.9c17.4,8.3,37.7,15.6,45.9,33
	c5.1,10.8,4.4,23.7,0.5,35.1c-3.9,11.4-10.5,21.5-17.1,31.5l-0.3,3C98.6,285.7,56.8,262.2,29,225.6z"/>
<path class="st1" d="M11.6,96.4C13.3,134,27,171.3,50.7,200.7c5.1,6.4,10.8,12.4,17.7,16.8c6.7,4.3,14.5,6.7,22.4,7.1
	c7.4,0.4,15.1,0,22.3,2.2c7.6,2.4,13.2,7.9,16.6,15c4.1,8.7,4.8,18.4,5.2,27.8c0.4,10.5,0.7,21.4,5.8,30.9c0.6,1.1-1.2,2-1.8,0.9
	c-8.9-16.5-3.5-36-8.9-53.4c-2.5-8.1-7.5-15.5-15.7-18.7c-7.2-2.8-15.1-2.3-22.6-2.7c-7.9-0.4-15.3-2.1-22.2-6.1
	c-7.1-4.1-13-9.9-18.3-16.1c-11.8-14.1-21.3-30-28.1-47.1c-7.9-19.5-12.5-40.1-13.4-61.1C9.5,95,11.5,95.1,11.6,96.4L11.6,96.4z"/>
<path class="st1" d="M42.5,191.6c-11.4,6.8-26.1,4.3-34.7-5.9c-0.8-1,0.7-2.3,1.5-1.3c8,9.5,21.6,11.8,32.3,5.4
	C42.7,189.1,43.6,190.9,42.5,191.6L42.5,191.6z"/>
<path class="st1" d="M87,224.9c3.4-12.7,1.8-26.3-4.4-37.9c-0.6-1.2,1.2-2,1.8-0.9c6.4,12.1,8,26.2,4.5,39.4
	C88.6,226.8,86.7,226.1,87,224.9L87,224.9z"/>
<path class="st1" d="M17.8,138c4.9-1.7,8.6-5.7,9.9-10.7c0.3-1.3,2.2-0.6,1.9,0.7c-1.4,5.5-5.5,10-10.9,11.9c-0.5,0.2-1.1,0-1.4-0.5
	C17.1,138.8,17.3,138.2,17.8,138z"/>
<path class="st0" d="M162.4,61.6c-0.2,0.8-0.4,1.6-0.5,2.4c-2.3,10.7-3.8,21.6-4.4,32.5c-0.1,0.8-0.1,1.7-0.1,2.5
	c-1.1,26.4,2.7,52.8,11.2,77.8c3.4,9.9,7.6,19.6,12.4,28.9c6.7,12.9,15,26.3,17.1,40.2c0.2,1.5,0.4,2.9,0.4,4.4L145,302.8
	c-0.2,0.1-0.4,0.1-0.5,0.2l-2,2.2c-0.3-0.5-0.6-0.9-0.9-1.4c-0.2-0.3-0.3-0.5-0.5-0.8c-0.1-0.2-0.2-0.4-0.3-0.5
	c0-0.1-0.1-0.1-0.1-0.2c-0.1-0.2-0.2-0.3-0.3-0.5c-1.6-2.7-3.2-5.4-4.8-8.2c0,0,0,0,0,0c-11.9-21-22.2-43.1-28.7-66.1
	c-0.2-0.7-0.4-1.4-0.6-2.1c-2.9-10.4-5-21-6.1-31.7c-0.6-5.9-1-11.8-1-17.7c-0.1-15.2,2.3-30.4,7-44.9c9.3-28.9,27.7-54.6,54.3-68.5
	C161.1,62.3,161.8,62,162.4,61.6z"/>
<path class="st1" d="M163,62.4c-21.3,31.1-32.8,69.1-31.6,106.8c0.3,8.1,1.2,16.4,4,24.1c2.8,7.5,7.5,14.1,13.7,19.1
	c5.7,4.8,12,9.1,16.4,15.2c4.6,6.4,5.8,14.3,4.2,22c-2,9.4-7.2,17.6-12.6,25.3c-6,8.6-12.4,17.5-14,28.2c-0.2,1.3-2.2,0.9-2-0.4
	c2.9-18.5,18.9-30.9,25.1-48c2.9-8,3.4-16.9-1.3-24.4c-4.1-6.5-10.6-10.9-16.4-15.8c-6.1-5.1-11-10.9-14.1-18.2
	c-3.2-7.5-4.5-15.7-4.9-23.9c-0.9-18.4,1.1-36.8,5.9-54.6c5.4-20.3,14.2-39.5,26.1-56.9C162.2,60,163.7,61.4,163,62.4L163,62.4z"/>
<path class="st1" d="M130.4,157c-13.2-1.5-23.4-12.3-24.1-25.6c-0.1-1.3,2-1.5,2-0.2c0.6,12.4,10.2,22.5,22.5,23.7
	C132,155.1,131.6,157.1,130.4,157L130.4,157z"/>
<path class="st1" d="M145.9,210.4c10.4-8.1,17.3-19.9,19.3-32.9c0.2-1.3,2.2-0.9,2,0.4c-2.2,13.5-9.4,25.7-20.2,34.2
	C146,212.9,144.8,211.2,145.9,210.4L145.9,210.4z"/>
<path class="st1" d="M142.9,99.3c4.9,1.6,10.3,0.6,14.4-2.6c1-0.8,2.1,0.9,1.1,1.7c-4.5,3.5-10.4,4.6-15.9,2.9
	c-0.5-0.1-0.9-0.6-0.8-1.2C141.8,99.6,142.3,99.2,142.9,99.3L142.9,99.3z"/>
<circle class="st4" cx="176.7" cy="141.3" r="22.4"/>
<path class="st8" d="M299.5,357.3H141.4c-2.3,0-4.2-1.9-4.2-4.2V289c0-2.3,1.9-4.2,4.2-4.2h158.1c2.3,0,4.2,1.9,4.2,4.2v64.2
	C303.7,355.5,301.8,357.3,299.5,357.3z"/>
<path class="st7" d="M284.5,388.1h-128c-2.8,0-5-2.3-5-5c0-2.7,2.2-5,5-5h128C290.9,378,291,388.2,284.5,388.1z"/>
<path class="st7" d="M284.5,411h-128c-2.8,0-5-2.2-5-5c0-2.8,2.2-5,5-5c0,0,0,0,0,0h128C290.9,400.9,291,411.1,284.5,411z"/>
<path class="st7" d="M284.5,433.8h-128c-2.8,0-5-2.2-5-5c0-2.7,2.2-5,5-5h128C290.9,423.8,291,433.9,284.5,433.8z"/>
<path class="st9" d="M295,185.7c-2.3,3.5-7,4.4-10.5,2.1c-0.4-0.2-0.7-0.5-1-0.8l-56,23.9l1.5-13.9l54.6-21.2
	c3.1-2.8,7.9-2.6,10.7,0.4C296.7,178.9,297,182.7,295,185.7L295,185.7z"/>
<path class="st6" d="M180.9,184.4c0,0-6.9,6.7-0.1,15.4s40.9,14.3,46.3,15.4s35.8-19.6,35.8-19.6l2.9-14.9l-33.9,11.6L180.9,184.4z"
	/>
<path class="st9" d="M162.3,235.4l0.5,10.4c0,0-1.6,9.2-0.3,11.2c1.3,2,37.2,2.2,37.2,2.2s2.4-12.8,4.4-24L162.3,235.4z"/>
<polygon class="st9" points="265.5,372.5 273,371 270.8,340.7 259.7,342.9 "/>
<polygon class="st9" points="276.2,333.1 283.2,329.9 274.1,301 263.8,305.6 "/>
<path class="st4" d="M282.3,316.7l-13.1,7.4l-32.4-52c-22.7,15.3-44.9,22.6-67.3,26.6c-7.6,1.3-15.3,0.7-16.7-7
	c-0.1-0.4-0.1-0.7-0.2-1.1c-0.9-8.4,9.6-19.2,10.9-29.5l28.7-1.7l3.5,4.5l33.1-20.4c6.7-4.1,15.5-1.9,19.5,4.9c0,0,0,0.1,0.1,0.1
	c0.2,0.4,0.4,0.7,0.6,1.1L282.3,316.7z"/>
<path class="st4" d="M274.2,351.7l-15,1.4L232,297.4c-27,4.6-52.5,6.1-74.5,0.5c-7.5-2-12.1-9.7-10.2-17.2c0.1-0.4,0.2-0.7,0.3-1.1
	c2.6-8,9.5-13.7,15-22.6l39.7,0.6l-4.4,15.3l38.6-5c7.8-0.9,14.9,4.6,15.8,12.4c0,0,0,0.1,0,0.1c0.1,0.4,0.1,0.8,0.1,1.3
	L274.2,351.7z"/>
<circle class="st9" cx="177.9" cy="149.5" r="16.1"/>
<path class="st6" d="M168.4,171.5l14.8,1.7c1.3,0.2,2.3,1.1,2.6,2.4l2.4,10.8l14.7,17.3c0,0,5.3,9.9,3.3,21.1s-2.8,19.5-2.8,19.5
	s-39.3,14.7-40.6,12.8c-1.3-2-1.7-10.9-1.7-10.9l-5.3-58.6c0,0,5.9-9.9,9.2-9.9C166.9,177.5,166.7,172.7,168.4,171.5z"/>
<ellipse class="st10" cx="203.6" cy="243.3" rx="3.8" ry="4.5"/>
<path class="st4" d="M261.7,364.7l11.4-5.7l2.2,5l14.5,2.9c1.8,0.4,3,2.2,2.7,4c-0.2,1.1-1,2-2,2.5l-14,6l-4.5-3.9l1.2,5.4l-5.3,2.3
	L261.7,364.7z"/>
<path class="st4" d="M272.9,330.7l11.3-5.9l2.2,5l14.5,2.7c1.9,0.3,3.1,2.1,2.7,4c-0.2,1.1-0.9,2-2,2.5l-13.9,6.2l-4.6-3.9l1.3,5.4
	l-5.2,2.3L272.9,330.7z"/>
<path class="st4" d="M168.6,144.5c-4.3,0-8.4-1.3-11.9-3.8l-0.1-0.1v-0.1c0-8.6,7-15.5,15.5-15.5h6.5c8.6,0,15.5,7,15.5,15.5
	c0,2-1.6,3.6-3.5,3.6l-21.7,0.4C168.9,144.5,168.8,144.5,168.6,144.5z"/>
<path class="st9" d="M233.6,270c-4.2,0.4-7.8-2.7-8.2-6.8c0-0.4,0-0.9,0-1.3L171.6,233l11.7-7.5l50.7,29.4c4.1,0.6,7,4.5,6.4,8.6
	C239.9,267,237.1,269.7,233.6,270z"/>
<path class="st6" d="M163.3,180.1c0,0-9.6-1.2-12,9.6s14.4,40.8,17,45.8s37.6,15.7,37.6,15.7l13.5-7.1L189.1,225L163.3,180.1z"/>
<path class="st4" d="M180.3,127.4c1.5-1.9,0.3-4.6-0.9-6.6c-2.8-4.7-5.8-9.3-8.9-13.8c-3.9-5.6-8.6-11.5-15.3-12.9
	c-6.1-1.2-12.3,1.7-17.5,5c-5.2,3.3-10.3,7.4-12.2,13.3c-1.9,5.6-0.6,11.7,1.8,17.1c2,4.6,4.7,10.1,1.8,14.3c-1.4,1.7-3.2,3-5.3,3.6
	c-5.3,2.1-11,2.9-16.6,2.5c7.8-0.1,14.6,7.9,22.1,6c4.3-1.1,7.1-5.1,9.2-9c1.5-2.6,2.5-5.5,3-8.5c0.5-4-0.6-8.3,0.8-12.1
	c1.4-4,5.2-6.7,9-8.6c2.5-1.3,5.3-2.3,8.1-2.1c8,0.6,12.1,10.4,19.6,13"/>
<path class="st6" d="M450.6,182H292.4c-2.3,0-4.2-1.9-4.2-4.2v-64.2c0-2.3,1.9-4.2,4.2-4.2h158.1c2.3,0,4.2,1.9,4.2,4.2v64.2
	C454.7,180.1,452.9,182,450.6,182z"/>
<path class="st7" d="M435.5,212.8h-128c-2.8,0-5-2.2-5-5c0-2.7,2.2-5,5-5h128C442,202.7,442,212.9,435.5,212.8z"/>
<path class="st7" d="M435.5,235.6h-128c-2.8,0-5-2.2-5-5c0-2.8,2.2-5,5-5c0,0,0,0,0,0h128C442,225.6,442,235.7,435.5,235.6z"/>
<path class="st7" d="M435.5,258.5h-128c-2.8,0-5-2.2-5-5c0-2.7,2.2-5,5-5h128C442,248.4,442,258.6,435.5,258.5z"/>
<path class="st11" d="M619.3,23.4H89.6c-1.6,0-3-1.3-3-3V3c0-1.6,1.3-3,3-3h529.7c1.6,0,3,1.3,3,3v17.5
	C622.3,22.1,621,23.4,619.3,23.4z"/>
<circle id="b637d542-0ea5-46b9-aa61-095218110267" class="st1" cx="103.9" cy="10.8" r="4.2"/>
<circle id="b2f1169c-b566-47c9-8d4c-e5da87bed52d" class="st1" cx="119.8" cy="10.8" r="4.2"/>
<circle id="a4343e91-3550-42c2-91d2-f5254c8e4c9c" class="st1" cx="135.8" cy="10.8" r="4.2"/>
<path class="st1" d="M603.7,7.9h-18.4c-0.8,0-1.4-0.6-1.4-1.4c0-0.7,0.6-1.3,1.4-1.4h18.4c0.8,0,1.4,0.6,1.4,1.4
	C605,7.3,604.4,7.9,603.7,7.9z"/>
<path class="st1" d="M603.7,13.1h-18.4c-0.8,0-1.4-0.6-1.4-1.4s0.6-1.4,1.4-1.4h18.4c0.8,0,1.4,0.6,1.4,1.4
	C605.1,12.4,604.5,13.1,603.7,13.1C603.7,13.1,603.7,13.1,603.7,13.1z"/>
<path class="st1" d="M603.7,18.2h-18.4c-0.8,0-1.4-0.6-1.4-1.4s0.6-1.4,1.4-1.4h18.4c0.8,0,1.4,0.6,1.4,1.4S604.4,18.2,603.7,18.2z"
	/>
</svg>
